<svg width="41" height="41" viewBox="0 0 41 41" fill="none" xmlns="http://www.w3.org/2000/svg">
<path d="M32.299 29.4501L40.9283 38.0774L38.0774 40.9283L29.4501 32.299C26.24 34.8723 22.2473 36.272 18.1331 36.2661C8.12361 36.2661 0 28.1425 0 18.1331C0 8.12361 8.12361 0 18.1331 0C28.1425 0 36.2661 8.12361 36.2661 18.1331C36.272 22.2473 34.8723 26.24 32.299 29.4501ZM28.2574 27.9551C30.8138 25.3253 32.2417 21.8007 32.2366 18.1331C32.2366 10.3419 25.9242 4.02957 18.1331 4.02957C10.3419 4.02957 4.02957 10.3419 4.02957 18.1331C4.02957 25.9242 10.3419 32.2366 18.1331 32.2366C21.8007 32.2417 25.3253 30.8138 27.9551 28.2574L28.2574 27.9551Z" fill="#A1A1A1"/>
</svg>
